Coordinates
version=1
nRows=9
nColumns=24
inDegrees=yes

Units are S.I. units (second, meters, Newtons, ...)
Angles are in degrees.

endheader
time	pelvis_tilt	pelvis_list	pelvis_rotation	pelvis_tx	pelvis_ty	pelvis_tz	hip_flexion_r	hip_adduction_r	hip_rotation_r	knee_angle_r	ankle_angle_r	subtalar_angle_r	mtp_angle_r	hip_flexion_l	hip_adduction_l	hip_rotation_l	knee_angle_l	ankle_angle_l	subtalar_angle_l	mtp_angle_l	lumbar_extension	lumbar_bending	lumbar_rotation
      0.68700000	     -2.90729096	      4.50503142	      9.24000095	     -0.07229881	      0.96637251	      0.29419330	     34.38680121	    -10.53775286	    -11.46646278	     -4.21914256	     10.03340395	     -7.35270571	     -1.25594760	    -18.54103371	      4.39879209	      5.50304070	     -6.66011306	     12.86206654	     -5.77805318	      0.28556365	     -9.67441995	     -2.19420566	     -6.41820185
      0.69116667	     -2.81906068	      4.41221250	      9.46590834	     -0.06606504	      0.96575183	      0.29419816	     34.16696344	    -10.52895519	    -11.50507830	     -4.90460814	     10.19562306	     -7.25056259	     -9.18211633	    -18.83945148	      4.12769593	      5.57595039	     -6.93298654	     12.70646970	     -5.64455486	      1.19820084	     -9.74964151	     -1.94577495	     -6.70104219
      0.69533333	     -2.81454291	      4.36630536	      9.58917150	     -0.05973452	      0.96494130	      0.29446141	     34.06516304	    -10.49955524	    -11.41387779	     -5.58838938	     10.23439543	     -7.30740773	     -9.17812122	    -19.06074466	      3.94321047	      5.54905394	     -7.20359202	     12.48520579	     -5.53147037	      1.20945393	     -9.71356304	     -1.80167803	     -6.75909091
      0.69950000	     -2.77637453	      4.29098315	      9.71828090	     -0.05334141	      0.96422411	      0.29475102	     33.89243080	    -10.43361019	    -11.37807274	     -6.21345888	     10.24126468	     -7.29422844	     -9.16466212	    -19.30058670	      3.71399217	      5.50471258	     -7.49397463	     12.25072273	     -5.33166593	      1.24591876	     -9.73504358	     -1.61695136	     -6.88918329
      0.70366667	     -2.62137209	      4.14010693	      9.90199569	     -0.04685829	      0.96379514	      0.29490113	     33.51500691	    -10.30837190	    -11.51709710	     -6.70427143	     10.09036533	     -7.30316783	     -9.11312967	    -19.62763314	      3.36906654	      5.41741918	     -7.83297391	     12.07194868	     -5.10264887	      1.38334643	     -9.84662854	     -1.30503089	     -7.11968702
      0.70783333	     -2.62702015	      4.07381407	     10.03455233	     -0.04036910	      0.96310517	      0.29519469	     33.34333340	    -10.24317418	    -11.50788556	     -7.21917780	      9.92467336	     -7.36214044	     -9.08732725	    -19.80074134	      3.16035675	      5.41583660	     -8.15760588	     11.72596004	     -5.01839240	      1.44375642	     -9.79753749	     -1.14418929	     -7.15723935
      0.71200000	     -2.48746378	      3.88894545	     10.20373339	     -0.03377164	      0.96274718	      0.29543057	     32.92807141	    -10.05169660	    -11.63820850	     -7.55630678	      9.59620146	     -7.52974703	     -8.98463831	    -20.07488678	      2.78441168	      5.30383844	     -8.54864623	     11.46567960	     -4.86152127	      1.66882521	     -9.87560783	     -0.80069281	     -7.35633697
      0.71616667	     -2.32463724	      3.74310897	     10.33498263	     -0.02719110	      0.96245437	      0.29577065	     32.49737381	     -9.86587961	    -11.73544049	     -7.86761643	      9.21332549	     -7.70676508	     -8.77718898	    -20.37204990	      2.45143227	      5.18459811	     -8.93401362	     11.10467595	     -4.65924795	      2.08889599	    -10.00304363	     -0.51789647	     -7.45493287
      0.72033333	     -2.24168094	      3.57816337	     10.44331672	     -0.02054250	      0.96208592	      0.29617346	     32.14226802	     -9.64770662	    -11.79455105	     -8.10698312	      8.67547249	     -7.98836852	     -8.50839395	    -20.55731043	      2.12271793	      5.03023895	     -9.36966587	     10.72374229	     -4.49976483	      2.61339959	    -10.02267619	     -0.23029111	     -7.56079729
